<?xml version="1.0" encoding="UTF-8" standalone="no"?>
<!-- Created with Inkscape (http://www.inkscape.org/) -->

<svg
   xmlns:dc="http://purl.org/dc/elements/1.1/"
   xmlns:cc="http://creativecommons.org/ns#"
   xmlns:rdf="http://www.w3.org/1999/02/22-rdf-syntax-ns#"
   xmlns:svg="http://www.w3.org/2000/svg"
   xmlns="http://www.w3.org/2000/svg"
   xmlns:sodipodi="http://sodipodi.sourceforge.net/DTD/sodipodi-0.dtd"
   xmlns:inkscape="http://www.inkscape.org/namespaces/inkscape"
   width="210mm"
   height="297mm"
   viewBox="0 0 210 297"
   version="1.1"
   id="svg8"
   inkscape:version="0.92.4 (5da689c313, 2019-01-14)"
   sodipodi:docname="drawing.svg">
  <g
     inkscape:label="Layer 1"
     inkscape:groupmode="layer"
     id="layer1">
    <g
       aria-label="Nikhil R"
       style="font-style:normal;font-weight:normal;font-size:10.58333302px;line-height:1.25;font-family:sans-serif;letter-spacing:0px;word-spacing:0px;fill:#000000;fill-opacity:1;stroke:none;stroke-width:0.26458332"
       id="text3715">
      <path class="title" fill-opacity="0" stroke="#000" stroke-width="1.5"
         d="m 10.866077,5.0466136 h 1.405599 L 15.692656,11.501 V 5.0466136 h 1.012858 v 7.7152914 h -1.405599 l -3.42098,-6.4543865 v 6.4543865 h -1.012858 z"
         
         id="path3733" />
      <path class="title" fill-opacity="0" stroke="#000" stroke-width="1.5"
         d="m 18.741565,6.9741445 h 0.950847 v 5.7877605 h -0.950847 z m 0,-2.2530924 h 0.950847 v 1.2040608 h -0.950847 z"
         
         id="path3735" />
      <path class="title" fill-opacity="0" stroke="#000" stroke-width="1.5"
         d="m 21.640614,4.7210521 h 0.956013 v 4.749064 l 2.837037,-2.4959716 h 1.214396 l -3.06958,2.7078449 3.198771,3.0799156 H 25.537016 L 22.596627,9.935204 v 2.826701 h -0.956013 z"
         
         id="path3737" />
      <path class="title" fill-opacity="0" stroke="#000" stroke-width="1.5"
         d="m 32.627023,9.268578 v 3.493327 H 31.676177 V 9.2995839 q 0,-0.8216553 -0.320394,-1.2298991 -0.320394,-0.4082438 -0.961182,-0.4082438 -0.769979,0 -1.214396,0.4909261 -0.444417,0.4909261 -0.444417,1.3384196 V 12.761905 H 27.779774 V 4.7210521 h 0.956014 v 3.1522623 q 0.341064,-0.521932 0.800984,-0.7803141 0.465088,-0.2583822 1.069702,-0.2583822 0.997356,0 1.508952,0.6201172 0.511597,0.6149495 0.511597,1.8138427 z"
         
         id="path3739" />
      <path class="title" fill-opacity="0" stroke="#000" stroke-width="1.5"
         d="m 34.533883,6.9741445 h 0.950846 v 5.7877605 h -0.950846 z m 0,-2.2530924 h 0.950846 v 1.2040608 h -0.950846 z"
         
         id="path3741" />
      <path class="title" fill-opacity="0" stroke="#000" stroke-width="1.5"
         d="M 37.469103,4.7210521 H 38.41995 V 12.761905 H 37.469103 Z"
         
         id="path3743" />
      <path class="title" fill-opacity="0" stroke="#000" stroke-width="1.5"
         d="m 47.473659,9.1445546 q 0.335897,0.1136881 0.651123,0.4857584 0.320394,0.37207 0.640788,1.023193 l 1.059367,2.108399 H 48.703558 L 47.716539,10.782697 Q 47.334133,10.007551 46.972398,9.7543364 46.615831,9.5011219 45.995713,9.5011219 H 44.858832 V 12.761905 H 43.814968 V 5.0466136 h 2.356445 q 1.322917,0 1.97404,0.5529378 0.651123,0.5529378 0.651123,1.6691487 0,0.7286377 -0.341064,1.2092285 -0.335897,0.4805908 -0.981853,0.666626 z M 44.858832,5.9044424 v 2.7388508 h 1.312581 q 0.754476,0 1.136882,-0.3462321 0.387573,-0.3513997 0.387573,-1.028361 0,-0.6769612 -0.387573,-1.0180257 -0.382406,-0.346232 -1.136882,-0.346232 z"
         
         id="path3745" />
    </g>
    <g
       style="font-style:normal;font-weight:normal;font-size:40px;line-height:1.25;font-family:sans-serif;letter-spacing:0px;word-spacing:0px;fill:#000000;fill-opacity:1;stroke:none"
       id="flowRoot3717" />
    <g
       style="font-style:normal;font-weight:normal;font-size:40px;line-height:1.25;font-family:sans-serif;letter-spacing:0px;word-spacing:0px;fill:#000000;fill-opacity:1;stroke:none"
       id="flowRoot3725" />
  </g>
</svg>
